<svg width="40" height="40" viewBox="0 0 40 40" fill="none" xmlns="http://www.w3.org/2000/svg">
<g clip-path="url(#clip0_476_903)">
<path d="M22.4233 39.8556C32.3267 38.6567 40 30.2244 40 20C40 8.95444 31.0456 0 20 0C8.95444 0 0 8.95444 0 20C0 29.38 6.45667 37.2511 15.1689 39.4122L15.5556 37.7778H21.6667L22.4233 39.8556Z" fill="#0866FF"/>
<path d="M15.1668 39.4118V26.1118H11.0391V19.9996H15.1668V17.3663C15.1668 10.5585 18.2468 7.40625 24.9268 7.40625C26.1913 7.40625 28.3746 7.65403 29.2713 7.90181V13.4385C28.7991 13.3907 27.9746 13.3663 26.9591 13.3663C23.6791 13.3663 22.4146 14.6063 22.4146 17.8385V19.9996H28.9513L27.8313 26.1107H22.4235V39.8551C19.9981 40.1472 17.5398 39.997 15.168 39.4118H15.1668Z" fill="white"/>
</g>
<defs>
<clipPath id="clip0_476_903">
<rect width="40" height="40" fill="white"/>
</clipPath>
</defs>
</svg>
